<?xml version="1.0" encoding="UTF-8" standalone="no"?>
<!DOCTYPE svg PUBLIC "-//W3C//DTD SVG 1.1//EN"
 "http://www.w3.org/Graphics/SVG/1.1/DTD/svg11.dtd">
<!-- Generated by graphviz version 2.47.0 (20210316.0004)
 -->
<!-- Title: dependencies Pages: 1 -->
<svg width="1717pt" height="284pt"
 viewBox="0.00 0.00 1717.00 284.00" xmlns="http://www.w3.org/2000/svg" xmlns:xlink="http://www.w3.org/1999/xlink">
<g id="graph0" class="graph" transform="scale(1 1) rotate(0) translate(4 280)">
<title>dependencies</title>
<polygon fill="white" stroke="transparent" points="-4,4 -4,-280 1713,-280 1713,4 -4,4"/>
<text text-anchor="start" x="833.51" y="-42.4" font-family="Times-12" font-weight="bold" font-size="14.00">Legend</text>
<polygon fill="#ffffb3" stroke="transparent" points="620.5,-10 620.5,-30 640.5,-30 640.5,-10 620.5,-10"/>
<text text-anchor="start" x="644.13" y="-15.4" font-family="Times-12" font-size="14.00"> &#160;Declarations</text>
<polygon fill="#8dd3c7" stroke="transparent" points="733.5,-10 733.5,-30 753.5,-30 753.5,-10 733.5,-10"/>
<text text-anchor="start" x="757.23" y="-15.4" font-family="Times-12" font-size="14.00"> &#160;Module</text>
<polygon fill="#80b1d3" stroke="transparent" points="819.5,-10 819.5,-30 839.5,-30 839.5,-10 819.5,-10"/>
<text text-anchor="start" x="843.28" y="-15.4" font-family="Times-12" font-size="14.00"> &#160;Bootstrap</text>
<polygon fill="#fdb462" stroke="transparent" points="916.5,-10 916.5,-30 936.5,-30 936.5,-10 916.5,-10"/>
<text text-anchor="start" x="940.17" y="-15.4" font-family="Times-12" font-size="14.00"> &#160;Providers</text>
<polygon fill="#fb8072" stroke="transparent" points="1012.5,-10 1012.5,-30 1032.5,-30 1032.5,-10 1012.5,-10"/>
<text text-anchor="start" x="1036.23" y="-15.4" font-family="Times-12" font-size="14.00"> &#160;Exports</text>
<g id="clust1" class="cluster">
<title>cluster_AppModule</title>
<polygon fill="none" stroke="black" stroke-dasharray="1,5" points="8,-70 8,-268 1701,-268 1701,-70 8,-70"/>
</g>
<g id="clust11" class="cluster">
<title>cluster_AppModule_imports</title>
<polygon fill="none" stroke="black" points="1549,-78 1549,-130 1693,-130 1693,-78 1549,-78"/>
</g>
<g id="clust13" class="cluster">
<title>cluster_AppModule_bootstrap</title>
<polygon fill="none" stroke="black" points="887,-208 887,-260 1011,-260 1011,-208 887,-208"/>
</g>
<g id="clust2" class="cluster">
<title>cluster_AppModule_declarations</title>
<polygon fill="none" stroke="black" points="478,-78 478,-130 1541,-130 1541,-78 478,-78"/>
</g>
<g id="clust14" class="cluster">
<title>cluster_AppModule_providers</title>
<polygon fill="none" stroke="black" points="16,-78 16,-130 470,-130 470,-78 16,-78"/>
</g>
<!-- AppComponent -->
<g id="node1" class="node">
<title>AppComponent</title>
<polygon fill="#ffffb3" stroke="black" points="1532.94,-122 1427.06,-122 1427.06,-86 1532.94,-86 1532.94,-122"/>
<text text-anchor="middle" x="1480" y="-99.8" font-family="Times,serif" font-size="14.00">AppComponent</text>
</g>
<!-- AppModule -->
<g id="node9" class="node">
<title>AppModule</title>
<polygon fill="#8dd3c7" stroke="black" points="990.66,-187 987.66,-191 966.66,-191 963.66,-187 907.34,-187 907.34,-151 990.66,-151 990.66,-187"/>
<text text-anchor="middle" x="949" y="-164.8" font-family="Times,serif" font-size="14.00">AppModule</text>
</g>
<!-- AppComponent&#45;&gt;AppModule -->
<g id="edge1" class="edge">
<title>AppComponent&#45;&gt;AppModule</title>
<path fill="none" stroke="black" d="M1480,-122.22C1480,-142.37 1480,-172 1480,-172 1480,-172 1000.67,-172 1000.67,-172"/>
<polygon fill="black" stroke="black" points="1000.67,-168.5 990.67,-172 1000.67,-175.5 1000.67,-168.5"/>
</g>
<!-- FormComponent -->
<g id="node2" class="node">
<title>FormComponent</title>
<polygon fill="#ffffb3" stroke="black" points="1408.67,-122 1297.33,-122 1297.33,-86 1408.67,-86 1408.67,-122"/>
<text text-anchor="middle" x="1353" y="-99.8" font-family="Times,serif" font-size="14.00">FormComponent</text>
</g>
<!-- FormComponent&#45;&gt;AppModule -->
<g id="edge2" class="edge">
<title>FormComponent&#45;&gt;AppModule</title>
<path fill="none" stroke="black" d="M1353,-122.22C1353,-140.83 1353,-167 1353,-167 1353,-167 1000.71,-167 1000.71,-167"/>
<polygon fill="black" stroke="black" points="1000.71,-163.5 990.71,-167 1000.71,-170.5 1000.71,-163.5"/>
</g>
<!-- GanttComponent -->
<g id="node3" class="node">
<title>GanttComponent</title>
<polygon fill="#ffffb3" stroke="black" points="1279.44,-122 1166.56,-122 1166.56,-86 1279.44,-86 1279.44,-122"/>
<text text-anchor="middle" x="1223" y="-99.8" font-family="Times,serif" font-size="14.00">GanttComponent</text>
</g>
<!-- GanttComponent&#45;&gt;AppModule -->
<g id="edge3" class="edge">
<title>GanttComponent&#45;&gt;AppModule</title>
<path fill="none" stroke="black" d="M1223,-122.03C1223,-139.06 1223,-162 1223,-162 1223,-162 1000.91,-162 1000.91,-162"/>
<polygon fill="black" stroke="black" points="1000.91,-158.5 990.91,-162 1000.91,-165.5 1000.91,-158.5"/>
</g>
<!-- GraficoComponent -->
<g id="node4" class="node">
<title>GraficoComponent</title>
<polygon fill="#ffffb3" stroke="black" points="1149.08,-122 1024.92,-122 1024.92,-86 1149.08,-86 1149.08,-122"/>
<text text-anchor="middle" x="1087" y="-99.8" font-family="Times,serif" font-size="14.00">GraficoComponent</text>
</g>
<!-- GraficoComponent&#45;&gt;AppModule -->
<g id="edge4" class="edge">
<title>GraficoComponent&#45;&gt;AppModule</title>
<path fill="none" stroke="black" d="M1087,-122.24C1087,-137.57 1087,-157 1087,-157 1087,-157 1000.78,-157 1000.78,-157"/>
<polygon fill="black" stroke="black" points="1000.78,-153.5 990.78,-157 1000.78,-160.5 1000.78,-153.5"/>
</g>
<!-- HomeComponent -->
<g id="node5" class="node">
<title>HomeComponent</title>
<polygon fill="#ffffb3" stroke="black" points="1006.55,-122 891.45,-122 891.45,-86 1006.55,-86 1006.55,-122"/>
<text text-anchor="middle" x="949" y="-99.8" font-family="Times,serif" font-size="14.00">HomeComponent</text>
</g>
<!-- HomeComponent&#45;&gt;AppModule -->
<g id="edge5" class="edge">
<title>HomeComponent&#45;&gt;AppModule</title>
<path fill="none" stroke="black" d="M949,-122.11C949,-122.11 949,-140.99 949,-140.99"/>
<polygon fill="black" stroke="black" points="945.5,-140.99 949,-150.99 952.5,-140.99 945.5,-140.99"/>
</g>
<!-- KanbanComponent -->
<g id="node6" class="node">
<title>KanbanComponent</title>
<polygon fill="#ffffb3" stroke="black" points="873.37,-122 748.63,-122 748.63,-86 873.37,-86 873.37,-122"/>
<text text-anchor="middle" x="811" y="-99.8" font-family="Times,serif" font-size="14.00">KanbanComponent</text>
</g>
<!-- KanbanComponent&#45;&gt;AppModule -->
<g id="edge6" class="edge">
<title>KanbanComponent&#45;&gt;AppModule</title>
<path fill="none" stroke="black" d="M811,-122.24C811,-137.57 811,-157 811,-157 811,-157 897.22,-157 897.22,-157"/>
<polygon fill="black" stroke="black" points="897.22,-160.5 907.22,-157 897.22,-153.5 897.22,-160.5"/>
</g>
<!-- NavbarComponent -->
<g id="node7" class="node">
<title>NavbarComponent</title>
<polygon fill="#ffffb3" stroke="black" points="730.03,-122 607.97,-122 607.97,-86 730.03,-86 730.03,-122"/>
<text text-anchor="middle" x="669" y="-99.8" font-family="Times,serif" font-size="14.00">NavbarComponent</text>
</g>
<!-- NavbarComponent&#45;&gt;AppModule -->
<g id="edge7" class="edge">
<title>NavbarComponent&#45;&gt;AppModule</title>
<path fill="none" stroke="black" d="M669,-122.03C669,-139.06 669,-162 669,-162 669,-162 897.08,-162 897.08,-162"/>
<polygon fill="black" stroke="black" points="897.08,-165.5 907.08,-162 897.08,-158.5 897.08,-165.5"/>
</g>
<!-- TabComponent -->
<g id="node8" class="node">
<title>TabComponent</title>
<polygon fill="#ffffb3" stroke="black" points="589.6,-122 486.4,-122 486.4,-86 589.6,-86 589.6,-122"/>
<text text-anchor="middle" x="538" y="-99.8" font-family="Times,serif" font-size="14.00">TabComponent</text>
</g>
<!-- TabComponent&#45;&gt;AppModule -->
<g id="edge8" class="edge">
<title>TabComponent&#45;&gt;AppModule</title>
<path fill="none" stroke="black" d="M538,-122.22C538,-140.83 538,-167 538,-167 538,-167 897.33,-167 897.33,-167"/>
<polygon fill="black" stroke="black" points="897.33,-170.5 907.33,-167 897.33,-163.5 897.33,-170.5"/>
</g>
<!-- AppComponent  -->
<g id="node11" class="node">
<title>AppComponent </title>
<polygon fill="#80b1d3" stroke="black" points="1003.44,-252 894.56,-252 894.56,-216 1003.44,-216 1003.44,-252"/>
<text text-anchor="middle" x="949" y="-229.8" font-family="Times,serif" font-size="14.00">AppComponent </text>
</g>
<!-- AppModule&#45;&gt;AppComponent  -->
<g id="edge11" class="edge">
<title>AppModule&#45;&gt;AppComponent </title>
<path fill="none" stroke="black" stroke-dasharray="1,5" d="M949,-187.11C949,-187.11 949,-205.99 949,-205.99"/>
<polygon fill="black" stroke="black" points="945.5,-205.99 949,-215.99 952.5,-205.99 945.5,-205.99"/>
</g>
<!-- AppRoutingModule -->
<g id="node10" class="node">
<title>AppRoutingModule</title>
<polygon fill="#8dd3c7" stroke="black" points="1685.27,-122 1682.27,-126 1661.27,-126 1658.27,-122 1556.73,-122 1556.73,-86 1685.27,-86 1685.27,-122"/>
<text text-anchor="middle" x="1621" y="-99.8" font-family="Times,serif" font-size="14.00">AppRoutingModule</text>
</g>
<!-- AppRoutingModule&#45;&gt;AppModule -->
<g id="edge9" class="edge">
<title>AppRoutingModule&#45;&gt;AppModule</title>
<path fill="none" stroke="black" d="M1642.46,-122.09C1642.46,-145.13 1642.46,-182 1642.46,-182 1642.46,-182 1000.82,-182 1000.82,-182"/>
<polygon fill="black" stroke="black" points="1000.82,-178.5 990.82,-182 1000.82,-185.5 1000.82,-178.5"/>
</g>
<!-- AppRoutingModule&#45;&gt;AppModule -->
<g id="edge10" class="edge">
<title>AppRoutingModule&#45;&gt;AppModule</title>
<path fill="none" stroke="black" d="M1599.54,-122.04C1599.54,-143.66 1599.54,-177 1599.54,-177 1599.54,-177 1000.68,-177 1000.68,-177"/>
<polygon fill="black" stroke="black" points="1000.68,-173.5 990.68,-177 1000.68,-180.5 1000.68,-173.5"/>
</g>
<!-- GanttService -->
<g id="node12" class="node">
<title>GanttService</title>
<ellipse fill="#fdb462" stroke="black" cx="401" cy="-104" rx="61.39" ry="18"/>
<text text-anchor="middle" x="401" y="-99.8" font-family="Times,serif" font-size="14.00">GanttService</text>
</g>
<!-- GanttService&#45;&gt;AppModule -->
<g id="edge12" class="edge">
<title>GanttService&#45;&gt;AppModule</title>
<path fill="none" stroke="black" d="M401,-122.22C401,-142.37 401,-172 401,-172 401,-172 896.91,-172 896.91,-172"/>
<polygon fill="black" stroke="black" points="896.91,-175.5 906.91,-172 896.91,-168.5 896.91,-175.5"/>
</g>
<!-- GraficoService -->
<g id="node13" class="node">
<title>GraficoService</title>
<ellipse fill="#fdb462" stroke="black" cx="252" cy="-104" rx="69.46" ry="18"/>
<text text-anchor="middle" x="252" y="-99.8" font-family="Times,serif" font-size="14.00">GraficoService</text>
</g>
<!-- GraficoService&#45;&gt;AppModule -->
<g id="edge13" class="edge">
<title>GraficoService&#45;&gt;AppModule</title>
<path fill="none" stroke="black" d="M252,-122.04C252,-143.66 252,-177 252,-177 252,-177 897.23,-177 897.23,-177"/>
<polygon fill="black" stroke="black" points="897.23,-180.5 907.23,-177 897.23,-173.5 897.23,-180.5"/>
</g>
<!-- KanbanService -->
<g id="node14" class="node">
<title>KanbanService</title>
<ellipse fill="#fdb462" stroke="black" cx="94" cy="-104" rx="70.04" ry="18"/>
<text text-anchor="middle" x="94" y="-99.8" font-family="Times,serif" font-size="14.00">KanbanService</text>
</g>
<!-- KanbanService&#45;&gt;AppModule -->
<g id="edge14" class="edge">
<title>KanbanService&#45;&gt;AppModule</title>
<path fill="none" stroke="black" d="M94,-122.09C94,-145.13 94,-182 94,-182 94,-182 897.18,-182 897.18,-182"/>
<polygon fill="black" stroke="black" points="897.18,-185.5 907.18,-182 897.18,-178.5 897.18,-185.5"/>
</g>
</g>
</svg>
