<?xml version="1.0" encoding="UTF-8" standalone="no"?>
<!DOCTYPE svg PUBLIC "-//W3C//DTD SVG 1.1//EN"
 "http://www.w3.org/Graphics/SVG/1.1/DTD/svg11.dtd">
<!-- Generated by graphviz version 2.47.0 (20210316.0004)
 -->
<!-- Title: dependencies Pages: 1 -->
<svg width="1717pt" height="284pt"
 viewBox="0.00 0.00 1717.00 284.00" xmlns="http://www.w3.org/2000/svg" xmlns:xlink="http://www.w3.org/1999/xlink">
<g id="graph0" class="graph" transform="scale(1 1) rotate(0) translate(4 280)">
<title>dependencies</title>
<polygon fill="white" stroke="transparent" points="-4,4 -4,-280 1713,-280 1713,4 -4,4"/>
<text text-anchor="start" x="833.51" y="-42.4" font-family="Times-12" font-weight="bold" font-size="14.00">Legend</text>
<polygon fill="#ffffb3" stroke="transparent" points="620.5,-10 620.5,-30 640.5,-30 640.5,-10 620.5,-10"/>
<text text-anchor="start" x="644.13" y="-15.4" font-family="Times-12" font-size="14.00"> &#160;Declarations</text>
<polygon fill="#8dd3c7" stroke="transparent" points="733.5,-10 733.5,-30 753.5,-30 753.5,-10 733.5,-10"/>
<text text-anchor="start" x="757.23" y="-15.4" font-family="Times-12" font-size="14.00"> &#160;Module</text>
<polygon fill="#80b1d3" stroke="transparent" points="819.5,-10 819.5,-30 839.5,-30 839.5,-10 819.5,-10"/>
<text text-anchor="start" x="843.28" y="-15.4" font-family="Times-12" font-size="14.00"> &#160;Bootstrap</text>
<polygon fill="#fdb462" stroke="transparent" points="916.5,-10 916.5,-30 936.5,-30 936.5,-10 916.5,-10"/>
<text text-anchor="start" x="940.17" y="-15.4" font-family="Times-12" font-size="14.00"> &#160;Providers</text>
<polygon fill="#fb8072" stroke="transparent" points="1012.5,-10 1012.5,-30 1032.5,-30 1032.5,-10 1012.5,-10"/>
<text text-anchor="start" x="1036.23" y="-15.4" font-family="Times-12" font-size="14.00"> &#160;Exports</text>
<g id="clust1" class="cluster">
<title>cluster_AppModule</title>
<polygon fill="none" stroke="black" stroke-dasharray="1,5" points="8,-70 8,-268 1701,-268 1701,-70 8,-70"/>
</g>
<g id="clust2" class="cluster">
<title>cluster_AppModule_declarations</title>
<polygon fill="none" stroke="black" points="630,-78 630,-130 1693,-130 1693,-78 630,-78"/>
</g>
<g id="clust11" class="cluster">
<title>cluster_AppModule_imports</title>
<polygon fill="none" stroke="black" points="478,-78 478,-130 622,-130 622,-78 478,-78"/>
</g>
<g id="clust13" class="cluster">
<title>cluster_AppModule_bootstrap</title>
<polygon fill="none" stroke="black" points="759,-208 759,-260 883,-260 883,-208 759,-208"/>
</g>
<g id="clust14" class="cluster">
<title>cluster_AppModule_providers</title>
<polygon fill="none" stroke="black" points="16,-78 16,-130 470,-130 470,-78 16,-78"/>
</g>
<!-- AppComponent -->
<g id="node1" class="node">
<title>AppComponent</title>
<polygon fill="#ffffb3" stroke="black" points="1684.94,-122 1579.06,-122 1579.06,-86 1684.94,-86 1684.94,-122"/>
<text text-anchor="middle" x="1632" y="-99.8" font-family="Times,serif" font-size="14.00">AppComponent</text>
</g>
<!-- AppModule -->
<g id="node9" class="node">
<title>AppModule</title>
<polygon fill="#8dd3c7" stroke="black" points="862.66,-187 859.66,-191 838.66,-191 835.66,-187 779.34,-187 779.34,-151 862.66,-151 862.66,-187"/>
<text text-anchor="middle" x="821" y="-164.8" font-family="Times,serif" font-size="14.00">AppModule</text>
</g>
<!-- AppComponent&#45;&gt;AppModule -->
<g id="edge1" class="edge">
<title>AppComponent&#45;&gt;AppModule</title>
<path fill="none" stroke="black" d="M1632,-122.09C1632,-145.13 1632,-182 1632,-182 1632,-182 872.9,-182 872.9,-182"/>
<polygon fill="black" stroke="black" points="872.9,-178.5 862.9,-182 872.9,-185.5 872.9,-178.5"/>
</g>
<!-- FormComponent -->
<g id="node2" class="node">
<title>FormComponent</title>
<polygon fill="#ffffb3" stroke="black" points="1560.67,-122 1449.33,-122 1449.33,-86 1560.67,-86 1560.67,-122"/>
<text text-anchor="middle" x="1505" y="-99.8" font-family="Times,serif" font-size="14.00">FormComponent</text>
</g>
<!-- FormComponent&#45;&gt;AppModule -->
<g id="edge2" class="edge">
<title>FormComponent&#45;&gt;AppModule</title>
<path fill="none" stroke="black" d="M1505,-122.04C1505,-143.66 1505,-177 1505,-177 1505,-177 872.76,-177 872.76,-177"/>
<polygon fill="black" stroke="black" points="872.76,-173.5 862.76,-177 872.76,-180.5 872.76,-173.5"/>
</g>
<!-- GanttComponent -->
<g id="node3" class="node">
<title>GanttComponent</title>
<polygon fill="#ffffb3" stroke="black" points="1431.44,-122 1318.56,-122 1318.56,-86 1431.44,-86 1431.44,-122"/>
<text text-anchor="middle" x="1375" y="-99.8" font-family="Times,serif" font-size="14.00">GanttComponent</text>
</g>
<!-- GanttComponent&#45;&gt;AppModule -->
<g id="edge3" class="edge">
<title>GanttComponent&#45;&gt;AppModule</title>
<path fill="none" stroke="black" d="M1375,-122.22C1375,-142.37 1375,-172 1375,-172 1375,-172 873.09,-172 873.09,-172"/>
<polygon fill="black" stroke="black" points="873.09,-168.5 863.09,-172 873.09,-175.5 873.09,-168.5"/>
</g>
<!-- GraficoComponent -->
<g id="node4" class="node">
<title>GraficoComponent</title>
<polygon fill="#ffffb3" stroke="black" points="1301.08,-122 1176.92,-122 1176.92,-86 1301.08,-86 1301.08,-122"/>
<text text-anchor="middle" x="1239" y="-99.8" font-family="Times,serif" font-size="14.00">GraficoComponent</text>
</g>
<!-- GraficoComponent&#45;&gt;AppModule -->
<g id="edge4" class="edge">
<title>GraficoComponent&#45;&gt;AppModule</title>
<path fill="none" stroke="black" d="M1239,-122.22C1239,-140.83 1239,-167 1239,-167 1239,-167 872.99,-167 872.99,-167"/>
<polygon fill="black" stroke="black" points="872.99,-163.5 862.99,-167 872.99,-170.5 872.99,-163.5"/>
</g>
<!-- HomeComponent -->
<g id="node5" class="node">
<title>HomeComponent</title>
<polygon fill="#ffffb3" stroke="black" points="1158.55,-122 1043.45,-122 1043.45,-86 1158.55,-86 1158.55,-122"/>
<text text-anchor="middle" x="1101" y="-99.8" font-family="Times,serif" font-size="14.00">HomeComponent</text>
</g>
<!-- HomeComponent&#45;&gt;AppModule -->
<g id="edge5" class="edge">
<title>HomeComponent&#45;&gt;AppModule</title>
<path fill="none" stroke="black" d="M1101,-122.03C1101,-139.06 1101,-162 1101,-162 1101,-162 872.92,-162 872.92,-162"/>
<polygon fill="black" stroke="black" points="872.92,-158.5 862.92,-162 872.92,-165.5 872.92,-158.5"/>
</g>
<!-- KanbanComponent -->
<g id="node6" class="node">
<title>KanbanComponent</title>
<polygon fill="#ffffb3" stroke="black" points="1025.37,-122 900.63,-122 900.63,-86 1025.37,-86 1025.37,-122"/>
<text text-anchor="middle" x="963" y="-99.8" font-family="Times,serif" font-size="14.00">KanbanComponent</text>
</g>
<!-- KanbanComponent&#45;&gt;AppModule -->
<g id="edge6" class="edge">
<title>KanbanComponent&#45;&gt;AppModule</title>
<path fill="none" stroke="black" d="M963,-122.24C963,-137.57 963,-157 963,-157 963,-157 872.84,-157 872.84,-157"/>
<polygon fill="black" stroke="black" points="872.84,-153.5 862.84,-157 872.84,-160.5 872.84,-153.5"/>
</g>
<!-- NavbarComponent -->
<g id="node7" class="node">
<title>NavbarComponent</title>
<polygon fill="#ffffb3" stroke="black" points="882.03,-122 759.97,-122 759.97,-86 882.03,-86 882.03,-122"/>
<text text-anchor="middle" x="821" y="-99.8" font-family="Times,serif" font-size="14.00">NavbarComponent</text>
</g>
<!-- NavbarComponent&#45;&gt;AppModule -->
<g id="edge7" class="edge">
<title>NavbarComponent&#45;&gt;AppModule</title>
<path fill="none" stroke="black" d="M821,-122.11C821,-122.11 821,-140.99 821,-140.99"/>
<polygon fill="black" stroke="black" points="817.5,-140.99 821,-150.99 824.5,-140.99 817.5,-140.99"/>
</g>
<!-- TabComponent -->
<g id="node8" class="node">
<title>TabComponent</title>
<polygon fill="#ffffb3" stroke="black" points="741.6,-122 638.4,-122 638.4,-86 741.6,-86 741.6,-122"/>
<text text-anchor="middle" x="690" y="-99.8" font-family="Times,serif" font-size="14.00">TabComponent</text>
</g>
<!-- TabComponent&#45;&gt;AppModule -->
<g id="edge8" class="edge">
<title>TabComponent&#45;&gt;AppModule</title>
<path fill="none" stroke="black" d="M690,-122.24C690,-137.57 690,-157 690,-157 690,-157 769.19,-157 769.19,-157"/>
<polygon fill="black" stroke="black" points="769.19,-160.5 779.19,-157 769.19,-153.5 769.19,-160.5"/>
</g>
<!-- AppComponent  -->
<g id="node11" class="node">
<title>AppComponent </title>
<polygon fill="#80b1d3" stroke="black" points="875.44,-252 766.56,-252 766.56,-216 875.44,-216 875.44,-252"/>
<text text-anchor="middle" x="821" y="-229.8" font-family="Times,serif" font-size="14.00">AppComponent </text>
</g>
<!-- AppModule&#45;&gt;AppComponent  -->
<g id="edge11" class="edge">
<title>AppModule&#45;&gt;AppComponent </title>
<path fill="none" stroke="black" stroke-dasharray="1,5" d="M821,-187.11C821,-187.11 821,-205.99 821,-205.99"/>
<polygon fill="black" stroke="black" points="817.5,-205.99 821,-215.99 824.5,-205.99 817.5,-205.99"/>
</g>
<!-- AppRoutingModule -->
<g id="node10" class="node">
<title>AppRoutingModule</title>
<polygon fill="#8dd3c7" stroke="black" points="614.27,-122 611.27,-126 590.27,-126 587.27,-122 485.73,-122 485.73,-86 614.27,-86 614.27,-122"/>
<text text-anchor="middle" x="550" y="-99.8" font-family="Times,serif" font-size="14.00">AppRoutingModule</text>
</g>
<!-- AppRoutingModule&#45;&gt;AppModule -->
<g id="edge9" class="edge">
<title>AppRoutingModule&#45;&gt;AppModule</title>
<path fill="none" stroke="black" d="M528.54,-122.22C528.54,-140.83 528.54,-167 528.54,-167 528.54,-167 769.1,-167 769.1,-167"/>
<polygon fill="black" stroke="black" points="769.1,-170.5 779.1,-167 769.1,-163.5 769.1,-170.5"/>
</g>
<!-- AppRoutingModule&#45;&gt;AppModule -->
<g id="edge10" class="edge">
<title>AppRoutingModule&#45;&gt;AppModule</title>
<path fill="none" stroke="black" d="M571.46,-122.03C571.46,-139.06 571.46,-162 571.46,-162 571.46,-162 769.23,-162 769.23,-162"/>
<polygon fill="black" stroke="black" points="769.23,-165.5 779.23,-162 769.23,-158.5 769.23,-165.5"/>
</g>
<!-- GanttService -->
<g id="node12" class="node">
<title>GanttService</title>
<ellipse fill="#fdb462" stroke="black" cx="401" cy="-104" rx="61.39" ry="18"/>
<text text-anchor="middle" x="401" y="-99.8" font-family="Times,serif" font-size="14.00">GanttService</text>
</g>
<!-- GanttService&#45;&gt;AppModule -->
<g id="edge12" class="edge">
<title>GanttService&#45;&gt;AppModule</title>
<path fill="none" stroke="black" d="M401,-122.22C401,-142.37 401,-172 401,-172 401,-172 769.19,-172 769.19,-172"/>
<polygon fill="black" stroke="black" points="769.19,-175.5 779.19,-172 769.19,-168.5 769.19,-175.5"/>
</g>
<!-- GraficoService -->
<g id="node13" class="node">
<title>GraficoService</title>
<ellipse fill="#fdb462" stroke="black" cx="252" cy="-104" rx="69.46" ry="18"/>
<text text-anchor="middle" x="252" y="-99.8" font-family="Times,serif" font-size="14.00">GraficoService</text>
</g>
<!-- GraficoService&#45;&gt;AppModule -->
<g id="edge13" class="edge">
<title>GraficoService&#45;&gt;AppModule</title>
<path fill="none" stroke="black" d="M252,-122.04C252,-143.66 252,-177 252,-177 252,-177 769.16,-177 769.16,-177"/>
<polygon fill="black" stroke="black" points="769.16,-180.5 779.16,-177 769.16,-173.5 769.16,-180.5"/>
</g>
<!-- KanbanService -->
<g id="node14" class="node">
<title>KanbanService</title>
<ellipse fill="#fdb462" stroke="black" cx="94" cy="-104" rx="70.04" ry="18"/>
<text text-anchor="middle" x="94" y="-99.8" font-family="Times,serif" font-size="14.00">KanbanService</text>
</g>
<!-- KanbanService&#45;&gt;AppModule -->
<g id="edge14" class="edge">
<title>KanbanService&#45;&gt;AppModule</title>
<path fill="none" stroke="black" d="M94,-122.09C94,-145.13 94,-182 94,-182 94,-182 769.3,-182 769.3,-182"/>
<polygon fill="black" stroke="black" points="769.3,-185.5 779.3,-182 769.3,-178.5 769.3,-185.5"/>
</g>
</g>
</svg>
